<mxfile host="Electron" agent="Mozilla/5.0 (Windows NT 10.0; Win64; x64) AppleWebKit/537.36 (KHTML, like Gecko) draw.io/24.7.17 Chrome/128.0.6613.36 Electron/32.0.1 Safari/537.36" version="24.7.17">
  <diagram name="Page-1" id="UieqdjIPLJYyIETxDKCM">
    <mxGraphModel dx="1893" dy="1160" grid="1" gridSize="10" guides="1" tooltips="1" connect="1" arrows="1" fold="1" page="1" pageScale="1" pageWidth="827" pageHeight="1169" math="1" shadow="0">
      <root>
        <mxCell id="0" />
        <mxCell id="1" parent="0" />
        <mxCell id="YbhAL_LKIzu4V9cOKkYo-1" value="Администратор вендора" style="shape=umlActor;verticalLabelPosition=bottom;verticalAlign=top;html=1;outlineConnect=0;" parent="1" vertex="1">
          <mxGeometry x="380" y="220" width="30" height="60" as="geometry" />
        </mxCell>
        <mxCell id="YbhAL_LKIzu4V9cOKkYo-4" value="Войти на сервисную страницу" style="ellipse;whiteSpace=wrap;html=1;" parent="1" vertex="1">
          <mxGeometry x="60" y="146" width="120" height="80" as="geometry" />
        </mxCell>
        <mxCell id="YbhAL_LKIzu4V9cOKkYo-5" value="Создать ресторан по заявке администратора ресторана" style="ellipse;whiteSpace=wrap;html=1;" parent="1" vertex="1">
          <mxGeometry x="640" y="146" width="160" height="100" as="geometry" />
        </mxCell>
        <mxCell id="YbhAL_LKIzu4V9cOKkYo-7" value="" style="endArrow=none;html=1;rounded=0;" parent="1" source="YbhAL_LKIzu4V9cOKkYo-1" target="YbhAL_LKIzu4V9cOKkYo-4" edge="1">
          <mxGeometry width="50" height="50" relative="1" as="geometry">
            <mxPoint x="421.5" y="210" as="sourcePoint" />
            <mxPoint x="471.5" y="160" as="targetPoint" />
          </mxGeometry>
        </mxCell>
        <mxCell id="YbhAL_LKIzu4V9cOKkYo-8" value="" style="endArrow=none;html=1;rounded=0;" parent="1" source="YbhAL_LKIzu4V9cOKkYo-1" target="YbhAL_LKIzu4V9cOKkYo-5" edge="1">
          <mxGeometry width="50" height="50" relative="1" as="geometry">
            <mxPoint x="401.5" y="390" as="sourcePoint" />
            <mxPoint x="451.5" y="340" as="targetPoint" />
          </mxGeometry>
        </mxCell>
        <mxCell id="YbhAL_LKIzu4V9cOKkYo-9" value="Администратор ресторана" style="shape=umlActor;verticalLabelPosition=bottom;verticalAlign=top;html=1;outlineConnect=0;" parent="1" vertex="1">
          <mxGeometry x="380" y="540" width="30" height="60" as="geometry" />
        </mxCell>
        <mxCell id="YbhAL_LKIzu4V9cOKkYo-10" value="Добавить стол" style="ellipse;whiteSpace=wrap;html=1;" parent="1" vertex="1">
          <mxGeometry x="680" y="388" width="120" height="80" as="geometry" />
        </mxCell>
        <mxCell id="YbhAL_LKIzu4V9cOKkYo-11" value="Редактировать информации о столе" style="ellipse;whiteSpace=wrap;html=1;" parent="1" vertex="1">
          <mxGeometry x="660" y="615" width="140" height="90" as="geometry" />
        </mxCell>
        <mxCell id="YbhAL_LKIzu4V9cOKkYo-12" value="Редактировать информации о сотруднике" style="ellipse;whiteSpace=wrap;html=1;" parent="1" vertex="1">
          <mxGeometry x="60" y="494" width="120" height="80" as="geometry" />
        </mxCell>
        <mxCell id="YbhAL_LKIzu4V9cOKkYo-13" value="Добавить сотрудника" style="ellipse;whiteSpace=wrap;html=1;" parent="1" vertex="1">
          <mxGeometry x="60" y="378" width="120" height="80" as="geometry" />
        </mxCell>
        <mxCell id="YbhAL_LKIzu4V9cOKkYo-14" value="Посмотреть информации о конкретном сотруднике" style="ellipse;whiteSpace=wrap;html=1;" parent="1" vertex="1">
          <mxGeometry x="60" y="726" width="120" height="80" as="geometry" />
        </mxCell>
        <mxCell id="YbhAL_LKIzu4V9cOKkYo-15" value="Посмотреть&amp;nbsp;обзорную информацию о всех сотрудниках" style="ellipse;whiteSpace=wrap;html=1;" parent="1" vertex="1">
          <mxGeometry x="60" y="600" width="140" height="100" as="geometry" />
        </mxCell>
        <mxCell id="YbhAL_LKIzu4V9cOKkYo-16" value="" style="endArrow=none;html=1;rounded=0;" parent="1" source="YbhAL_LKIzu4V9cOKkYo-10" target="YbhAL_LKIzu4V9cOKkYo-9" edge="1">
          <mxGeometry width="50" height="50" relative="1" as="geometry">
            <mxPoint x="379" y="660" as="sourcePoint" />
            <mxPoint x="429" y="610" as="targetPoint" />
          </mxGeometry>
        </mxCell>
        <mxCell id="YbhAL_LKIzu4V9cOKkYo-17" value="" style="endArrow=none;html=1;rounded=0;" parent="1" source="YbhAL_LKIzu4V9cOKkYo-11" target="YbhAL_LKIzu4V9cOKkYo-9" edge="1">
          <mxGeometry width="50" height="50" relative="1" as="geometry">
            <mxPoint x="379" y="660" as="sourcePoint" />
            <mxPoint x="429" y="610" as="targetPoint" />
          </mxGeometry>
        </mxCell>
        <mxCell id="YbhAL_LKIzu4V9cOKkYo-18" value="" style="endArrow=none;html=1;rounded=0;" parent="1" source="YbhAL_LKIzu4V9cOKkYo-15" target="YbhAL_LKIzu4V9cOKkYo-9" edge="1">
          <mxGeometry width="50" height="50" relative="1" as="geometry">
            <mxPoint x="379" y="660" as="sourcePoint" />
            <mxPoint x="429" y="610" as="targetPoint" />
          </mxGeometry>
        </mxCell>
        <mxCell id="YbhAL_LKIzu4V9cOKkYo-19" value="" style="endArrow=none;html=1;rounded=0;" parent="1" source="YbhAL_LKIzu4V9cOKkYo-14" target="YbhAL_LKIzu4V9cOKkYo-9" edge="1">
          <mxGeometry width="50" height="50" relative="1" as="geometry">
            <mxPoint x="379" y="660" as="sourcePoint" />
            <mxPoint x="429" y="610" as="targetPoint" />
          </mxGeometry>
        </mxCell>
        <mxCell id="YbhAL_LKIzu4V9cOKkYo-20" value="" style="endArrow=none;html=1;rounded=0;" parent="1" source="YbhAL_LKIzu4V9cOKkYo-13" target="YbhAL_LKIzu4V9cOKkYo-9" edge="1">
          <mxGeometry width="50" height="50" relative="1" as="geometry">
            <mxPoint x="379" y="660" as="sourcePoint" />
            <mxPoint x="429" y="610" as="targetPoint" />
          </mxGeometry>
        </mxCell>
        <mxCell id="YbhAL_LKIzu4V9cOKkYo-21" value="" style="endArrow=none;html=1;rounded=0;" parent="1" source="YbhAL_LKIzu4V9cOKkYo-12" target="YbhAL_LKIzu4V9cOKkYo-9" edge="1">
          <mxGeometry width="50" height="50" relative="1" as="geometry">
            <mxPoint x="379" y="660" as="sourcePoint" />
            <mxPoint x="429" y="610" as="targetPoint" />
          </mxGeometry>
        </mxCell>
        <mxCell id="YbhAL_LKIzu4V9cOKkYo-22" value="&lt;span style=&quot;background-color: rgb(255, 255, 255);&quot;&gt;Сотрудник ресторана&lt;/span&gt;" style="shape=umlActor;verticalLabelPosition=bottom;verticalAlign=top;html=1;outlineConnect=0;" parent="1" vertex="1">
          <mxGeometry x="384" y="922" width="30" height="60" as="geometry" />
        </mxCell>
        <mxCell id="YbhAL_LKIzu4V9cOKkYo-23" value="Изменить пароль своей учётной записи" style="ellipse;whiteSpace=wrap;html=1;" parent="1" vertex="1">
          <mxGeometry x="60" y="1074" width="120" height="80" as="geometry" />
        </mxCell>
        <mxCell id="YbhAL_LKIzu4V9cOKkYo-24" value="Посмотреть&amp;nbsp;информацию о своей учётной записи" style="ellipse;whiteSpace=wrap;html=1;" parent="1" vertex="1">
          <mxGeometry x="60" y="958" width="150" height="80" as="geometry" />
        </mxCell>
        <mxCell id="YbhAL_LKIzu4V9cOKkYo-26" value="Посмотреть информацию о конкретном столе" style="ellipse;whiteSpace=wrap;html=1;" parent="1" vertex="1">
          <mxGeometry x="680" y="1074" width="120" height="80" as="geometry" />
        </mxCell>
        <mxCell id="YbhAL_LKIzu4V9cOKkYo-27" value="Посмотреть&amp;nbsp;занятость столов во всем зале в выбранный момент времени" style="ellipse;whiteSpace=wrap;html=1;" parent="1" vertex="1">
          <mxGeometry x="650" y="842" width="150" height="100" as="geometry" />
        </mxCell>
        <mxCell id="YbhAL_LKIzu4V9cOKkYo-28" value="Посмотреть&amp;nbsp;очередь брони по всем столам" style="ellipse;whiteSpace=wrap;html=1;flipH=1;" parent="1" vertex="1">
          <mxGeometry x="490" y="780" width="160" height="80" as="geometry" />
        </mxCell>
        <mxCell id="YbhAL_LKIzu4V9cOKkYo-29" value="Посмотреть очередь брони конкретного стола" style="ellipse;whiteSpace=wrap;html=1;" parent="1" vertex="1">
          <mxGeometry x="645" y="968" width="150" height="80" as="geometry" />
        </mxCell>
        <mxCell id="YbhAL_LKIzu4V9cOKkYo-30" value="Посмотреть&amp;nbsp;информацию о конкретной брони" style="ellipse;whiteSpace=wrap;html=1;flipH=1;" parent="1" vertex="1">
          <mxGeometry x="329" y="1074" width="170" height="80" as="geometry" />
        </mxCell>
        <mxCell id="YbhAL_LKIzu4V9cOKkYo-31" value="Редактировать информацию о брони" style="ellipse;whiteSpace=wrap;html=1;flipH=1;" parent="1" vertex="1">
          <mxGeometry x="200" y="1074" width="120" height="80" as="geometry" />
        </mxCell>
        <mxCell id="YbhAL_LKIzu4V9cOKkYo-32" value="Создать бронь" style="ellipse;whiteSpace=wrap;html=1;flipH=1;" parent="1" vertex="1">
          <mxGeometry x="530" y="1074" width="120" height="80" as="geometry" />
        </mxCell>
        <mxCell id="YbhAL_LKIzu4V9cOKkYo-33" value="" style="endArrow=none;html=1;rounded=0;" parent="1" source="YbhAL_LKIzu4V9cOKkYo-22" target="YbhAL_LKIzu4V9cOKkYo-29" edge="1">
          <mxGeometry width="50" height="50" relative="1" as="geometry">
            <mxPoint x="360" y="1109" as="sourcePoint" />
            <mxPoint x="410" y="1059" as="targetPoint" />
          </mxGeometry>
        </mxCell>
        <mxCell id="YbhAL_LKIzu4V9cOKkYo-34" value="" style="endArrow=none;html=1;rounded=0;" parent="1" source="YbhAL_LKIzu4V9cOKkYo-22" target="YbhAL_LKIzu4V9cOKkYo-23" edge="1">
          <mxGeometry width="50" height="50" relative="1" as="geometry">
            <mxPoint x="360" y="1109" as="sourcePoint" />
            <mxPoint x="410" y="1059" as="targetPoint" />
          </mxGeometry>
        </mxCell>
        <mxCell id="YbhAL_LKIzu4V9cOKkYo-35" value="" style="endArrow=none;html=1;rounded=0;" parent="1" source="YbhAL_LKIzu4V9cOKkYo-22" target="YbhAL_LKIzu4V9cOKkYo-28" edge="1">
          <mxGeometry width="50" height="50" relative="1" as="geometry">
            <mxPoint x="360" y="1109" as="sourcePoint" />
            <mxPoint x="410" y="1059" as="targetPoint" />
          </mxGeometry>
        </mxCell>
        <mxCell id="YbhAL_LKIzu4V9cOKkYo-36" value="" style="endArrow=none;html=1;rounded=0;" parent="1" source="YbhAL_LKIzu4V9cOKkYo-22" target="YbhAL_LKIzu4V9cOKkYo-27" edge="1">
          <mxGeometry width="50" height="50" relative="1" as="geometry">
            <mxPoint x="360" y="1109" as="sourcePoint" />
            <mxPoint x="410" y="1059" as="targetPoint" />
          </mxGeometry>
        </mxCell>
        <mxCell id="YbhAL_LKIzu4V9cOKkYo-37" value="" style="endArrow=none;html=1;rounded=0;" parent="1" source="YbhAL_LKIzu4V9cOKkYo-22" target="YbhAL_LKIzu4V9cOKkYo-26" edge="1">
          <mxGeometry width="50" height="50" relative="1" as="geometry">
            <mxPoint x="360" y="1109" as="sourcePoint" />
            <mxPoint x="410" y="1059" as="targetPoint" />
          </mxGeometry>
        </mxCell>
        <mxCell id="YbhAL_LKIzu4V9cOKkYo-39" value="" style="endArrow=none;html=1;rounded=0;" parent="1" source="YbhAL_LKIzu4V9cOKkYo-22" target="YbhAL_LKIzu4V9cOKkYo-24" edge="1">
          <mxGeometry width="50" height="50" relative="1" as="geometry">
            <mxPoint x="360" y="1109" as="sourcePoint" />
            <mxPoint x="410" y="1059" as="targetPoint" />
          </mxGeometry>
        </mxCell>
        <mxCell id="YbhAL_LKIzu4V9cOKkYo-40" value="" style="endArrow=none;html=1;rounded=0;" parent="1" source="YbhAL_LKIzu4V9cOKkYo-22" target="YbhAL_LKIzu4V9cOKkYo-30" edge="1">
          <mxGeometry width="50" height="50" relative="1" as="geometry">
            <mxPoint x="360" y="1109" as="sourcePoint" />
            <mxPoint x="410" y="1059" as="targetPoint" />
          </mxGeometry>
        </mxCell>
        <mxCell id="YbhAL_LKIzu4V9cOKkYo-41" value="" style="endArrow=none;html=1;rounded=0;" parent="1" source="YbhAL_LKIzu4V9cOKkYo-22" target="YbhAL_LKIzu4V9cOKkYo-31" edge="1">
          <mxGeometry width="50" height="50" relative="1" as="geometry">
            <mxPoint x="360" y="1109" as="sourcePoint" />
            <mxPoint x="410" y="1059" as="targetPoint" />
          </mxGeometry>
        </mxCell>
        <mxCell id="YbhAL_LKIzu4V9cOKkYo-42" value="" style="endArrow=none;html=1;rounded=0;" parent="1" source="YbhAL_LKIzu4V9cOKkYo-22" target="YbhAL_LKIzu4V9cOKkYo-32" edge="1">
          <mxGeometry width="50" height="50" relative="1" as="geometry">
            <mxPoint x="360" y="1109" as="sourcePoint" />
            <mxPoint x="410" y="1059" as="targetPoint" />
          </mxGeometry>
        </mxCell>
        <mxCell id="YbhAL_LKIzu4V9cOKkYo-43" value="" style="endArrow=block;endSize=16;endFill=0;html=1;rounded=0;" parent="1" source="YbhAL_LKIzu4V9cOKkYo-9" target="YbhAL_LKIzu4V9cOKkYo-22" edge="1">
          <mxGeometry width="160" relative="1" as="geometry">
            <mxPoint x="270" y="760" as="sourcePoint" />
            <mxPoint x="430" y="760" as="targetPoint" />
          </mxGeometry>
        </mxCell>
        <mxCell id="u-8w5CSnCzMtnnhmVk6F-1" value="&lt;span style=&quot;font-size:11.0pt;line-height:107%;&lt;br/&gt;font-family:&amp;quot;Calibri&amp;quot;,sans-serif;mso-ascii-theme-font:minor-latin;mso-fareast-font-family:&lt;br/&gt;Calibri;mso-fareast-theme-font:minor-latin;mso-hansi-theme-font:minor-latin;&lt;br/&gt;mso-bidi-font-family:&amp;quot;Times New Roman&amp;quot;;mso-bidi-theme-font:minor-bidi;&lt;br/&gt;mso-ligatures:none;mso-ansi-language:RU;mso-fareast-language:EN-US;mso-bidi-language:&lt;br/&gt;AR-SA&quot;&gt;Не аутентифицированный&lt;/span&gt;&lt;div&gt;&lt;span style=&quot;font-size:11.0pt;line-height:107%;&lt;br/&gt;font-family:&amp;quot;Calibri&amp;quot;,sans-serif;mso-ascii-theme-font:minor-latin;mso-fareast-font-family:&lt;br/&gt;Calibri;mso-fareast-theme-font:minor-latin;mso-hansi-theme-font:minor-latin;&lt;br/&gt;mso-bidi-font-family:&amp;quot;Times New Roman&amp;quot;;mso-bidi-theme-font:minor-bidi;&lt;br/&gt;mso-ligatures:none;mso-ansi-language:RU;mso-fareast-language:EN-US;mso-bidi-language:&lt;br/&gt;AR-SA&quot;&gt;пользователь&lt;/span&gt;&lt;/div&gt;" style="shape=umlActor;verticalLabelPosition=bottom;verticalAlign=top;html=1;outlineConnect=0;" vertex="1" parent="1">
          <mxGeometry x="380" y="330" width="30" height="60" as="geometry" />
        </mxCell>
        <mxCell id="u-8w5CSnCzMtnnhmVk6F-3" value="Войти в приложение" style="ellipse;whiteSpace=wrap;html=1;" vertex="1" parent="1">
          <mxGeometry x="60" y="262" width="120" height="80" as="geometry" />
        </mxCell>
        <mxCell id="u-8w5CSnCzMtnnhmVk6F-4" value="" style="endArrow=none;html=1;rounded=0;" edge="1" parent="1" source="u-8w5CSnCzMtnnhmVk6F-3" target="u-8w5CSnCzMtnnhmVk6F-1">
          <mxGeometry width="50" height="50" relative="1" as="geometry">
            <mxPoint x="496.5" y="250" as="sourcePoint" />
            <mxPoint x="546.5" y="200" as="targetPoint" />
          </mxGeometry>
        </mxCell>
        <mxCell id="u-8w5CSnCzMtnnhmVk6F-5" value="Подать заявку на регистрацию ресторана" style="ellipse;whiteSpace=wrap;html=1;" vertex="1" parent="1">
          <mxGeometry x="680" y="272" width="120" height="80" as="geometry" />
        </mxCell>
        <mxCell id="u-8w5CSnCzMtnnhmVk6F-6" value="" style="endArrow=none;html=1;rounded=0;" edge="1" parent="1" source="u-8w5CSnCzMtnnhmVk6F-1" target="u-8w5CSnCzMtnnhmVk6F-5">
          <mxGeometry width="50" height="50" relative="1" as="geometry">
            <mxPoint x="546.5" y="240" as="sourcePoint" />
            <mxPoint x="596.5" y="190" as="targetPoint" />
          </mxGeometry>
        </mxCell>
        <mxCell id="u-8w5CSnCzMtnnhmVk6F-8" value="Выйти из учётной записи" style="ellipse;whiteSpace=wrap;html=1;" vertex="1" parent="1">
          <mxGeometry x="60" y="842" width="120" height="80" as="geometry" />
        </mxCell>
        <mxCell id="u-8w5CSnCzMtnnhmVk6F-9" value="" style="endArrow=none;html=1;rounded=0;" edge="1" parent="1" source="u-8w5CSnCzMtnnhmVk6F-8" target="YbhAL_LKIzu4V9cOKkYo-22">
          <mxGeometry width="50" height="50" relative="1" as="geometry">
            <mxPoint x="310" y="924" as="sourcePoint" />
            <mxPoint x="360" y="874" as="targetPoint" />
          </mxGeometry>
        </mxCell>
        <mxCell id="u-8w5CSnCzMtnnhmVk6F-10" value="Посмотреть обзорную информацию о зарегистрированных ресторанах" style="ellipse;whiteSpace=wrap;html=1;" vertex="1" parent="1">
          <mxGeometry x="620" y="30" width="180" height="100" as="geometry" />
        </mxCell>
        <mxCell id="u-8w5CSnCzMtnnhmVk6F-11" value="" style="endArrow=none;html=1;rounded=0;" edge="1" parent="1" source="YbhAL_LKIzu4V9cOKkYo-1" target="u-8w5CSnCzMtnnhmVk6F-10">
          <mxGeometry width="50" height="50" relative="1" as="geometry">
            <mxPoint x="360" y="150" as="sourcePoint" />
            <mxPoint x="410" y="100" as="targetPoint" />
          </mxGeometry>
        </mxCell>
        <mxCell id="u-8w5CSnCzMtnnhmVk6F-15" value="Выйти из учётной записи" style="ellipse;whiteSpace=wrap;html=1;" vertex="1" parent="1">
          <mxGeometry x="60" y="30" width="120" height="80" as="geometry" />
        </mxCell>
        <mxCell id="u-8w5CSnCzMtnnhmVk6F-16" value="" style="endArrow=none;html=1;rounded=0;" edge="1" parent="1" source="u-8w5CSnCzMtnnhmVk6F-15" target="YbhAL_LKIzu4V9cOKkYo-1">
          <mxGeometry width="50" height="50" relative="1" as="geometry">
            <mxPoint x="400" y="150" as="sourcePoint" />
            <mxPoint x="450" y="100" as="targetPoint" />
          </mxGeometry>
        </mxCell>
        <mxCell id="u-8w5CSnCzMtnnhmVk6F-17" value="Удалить выбранный ресторан" style="ellipse;whiteSpace=wrap;html=1;" vertex="1" parent="1">
          <mxGeometry x="257" y="30" width="120" height="80" as="geometry" />
        </mxCell>
        <mxCell id="u-8w5CSnCzMtnnhmVk6F-18" value="" style="endArrow=none;html=1;rounded=0;" edge="1" parent="1" source="u-8w5CSnCzMtnnhmVk6F-17" target="YbhAL_LKIzu4V9cOKkYo-1">
          <mxGeometry width="50" height="50" relative="1" as="geometry">
            <mxPoint x="460" y="150" as="sourcePoint" />
            <mxPoint x="510" y="100" as="targetPoint" />
          </mxGeometry>
        </mxCell>
        <mxCell id="u-8w5CSnCzMtnnhmVk6F-19" value="Редактировать информацию о ресторане" style="ellipse;whiteSpace=wrap;html=1;" vertex="1" parent="1">
          <mxGeometry x="453" y="30" width="120" height="80" as="geometry" />
        </mxCell>
        <mxCell id="u-8w5CSnCzMtnnhmVk6F-20" value="" style="endArrow=none;html=1;rounded=0;" edge="1" parent="1" source="YbhAL_LKIzu4V9cOKkYo-1" target="u-8w5CSnCzMtnnhmVk6F-19">
          <mxGeometry width="50" height="50" relative="1" as="geometry">
            <mxPoint x="590" y="30" as="sourcePoint" />
            <mxPoint x="640" y="-20" as="targetPoint" />
          </mxGeometry>
        </mxCell>
        <mxCell id="u-8w5CSnCzMtnnhmVk6F-22" value="Удалить бронь" style="ellipse;whiteSpace=wrap;html=1;" vertex="1" parent="1">
          <mxGeometry x="680" y="736" width="120" height="80" as="geometry" />
        </mxCell>
        <mxCell id="u-8w5CSnCzMtnnhmVk6F-23" value="" style="edgeStyle=none;orthogonalLoop=1;jettySize=auto;html=1;rounded=0;endArrow=none;endFill=0;" edge="1" parent="1" source="u-8w5CSnCzMtnnhmVk6F-22" target="YbhAL_LKIzu4V9cOKkYo-9">
          <mxGeometry width="80" relative="1" as="geometry">
            <mxPoint x="-120" y="730" as="sourcePoint" />
            <mxPoint x="-40" y="730" as="targetPoint" />
            <Array as="points" />
          </mxGeometry>
        </mxCell>
        <mxCell id="u-8w5CSnCzMtnnhmVk6F-24" value="Удалить стол" style="ellipse;whiteSpace=wrap;html=1;" vertex="1" parent="1">
          <mxGeometry x="690" y="514" width="110" height="60" as="geometry" />
        </mxCell>
        <mxCell id="u-8w5CSnCzMtnnhmVk6F-25" value="" style="edgeStyle=none;orthogonalLoop=1;jettySize=auto;html=1;rounded=0;endArrow=none;endFill=0;" edge="1" parent="1" source="YbhAL_LKIzu4V9cOKkYo-9" target="u-8w5CSnCzMtnnhmVk6F-24">
          <mxGeometry width="80" relative="1" as="geometry">
            <mxPoint x="840" y="400" as="sourcePoint" />
            <mxPoint x="920" y="400" as="targetPoint" />
            <Array as="points" />
          </mxGeometry>
        </mxCell>
      </root>
    </mxGraphModel>
  </diagram>
</mxfile>
